FILE "Battlecorps - 3D Mechanical Battle Simulator (1994)(Core Design - JVC)(JP).img" BINARY
  TRACK 01 MODE1/2352
    INDEX 01 00:00:00
  TRACK 02 AUDIO
    PREGAP 00:02:00
    INDEX 01 08:34:22
  TRACK 03 AUDIO
    INDEX 00 08:42:01
    INDEX 01 08:44:00
  TRACK 04 AUDIO
    INDEX 00 15:06:15
    INDEX 01 15:08:14
  TRACK 05 AUDIO
    INDEX 00 20:05:60
    INDEX 01 20:07:59
  TRACK 06 AUDIO
    INDEX 00 25:35:36
    INDEX 01 25:37:35
  TRACK 07 AUDIO
    INDEX 00 30:52:12
    INDEX 01 30:54:11
  TRACK 08 AUDIO
    INDEX 00 37:26:74
    INDEX 01 37:28:73
  TRACK 09 AUDIO
    INDEX 00 41:38:49
    INDEX 01 41:40:48
  TRACK 10 AUDIO
    INDEX 00 42:10:14
    INDEX 01 42:12:13
  TRACK 11 AUDIO
    INDEX 00 42:34:48
    INDEX 01 42:36:47
  TRACK 12 AUDIO
    INDEX 00 43:04:52
    INDEX 01 43:06:51
  TRACK 13 AUDIO
    INDEX 00 43:35:28
    INDEX 01 43:37:27
  TRACK 14 AUDIO
    INDEX 00 44:05:58
    INDEX 01 44:07:57
  TRACK 15 AUDIO
    INDEX 00 44:33:22
    INDEX 01 44:35:21
  TRACK 16 AUDIO
    INDEX 00 45:03:21
    INDEX 01 45:05:20
  TRACK 17 AUDIO
    INDEX 00 45:37:60
    INDEX 01 45:39:59
  TRACK 18 AUDIO
    INDEX 00 46:01:37
    INDEX 01 46:03:36
  TRACK 19 AUDIO
    INDEX 00 46:25:41
    INDEX 01 46:27:40
  TRACK 20 AUDIO
    INDEX 00 46:46:28
    INDEX 01 46:48:27
  TRACK 21 AUDIO
    INDEX 00 47:15:41
    INDEX 01 47:17:40
  TRACK 22 AUDIO
    INDEX 00 47:36:49
    INDEX 01 47:38:48
  TRACK 23 AUDIO
    INDEX 00 48:02:34
    INDEX 01 48:04:33
  TRACK 24 AUDIO
    INDEX 00 48:23:72
    INDEX 01 48:25:71
  TRACK 25 AUDIO
    INDEX 00 48:48:63
    INDEX 01 48:50:62
  TRACK 26 AUDIO
    INDEX 00 49:12:51
    INDEX 01 49:14:50
  TRACK 27 AUDIO
    INDEX 00 49:37:17
    INDEX 01 49:39:16
  TRACK 28 AUDIO
    INDEX 00 50:00:38
    INDEX 01 50:02:37
  TRACK 29 AUDIO
    INDEX 00 50:22:50
    INDEX 01 50:24:49
  TRACK 30 AUDIO
    INDEX 00 50:52:47
    INDEX 01 50:54:46
  TRACK 31 AUDIO
    INDEX 00 51:10:45
    INDEX 01 51:12:44
  TRACK 32 AUDIO
    INDEX 00 51:33:32
    INDEX 01 51:35:31
  TRACK 33 AUDIO
    INDEX 00 51:51:17
    INDEX 01 51:53:16
  TRACK 34 AUDIO
    INDEX 00 52:13:05
    INDEX 01 52:15:04
  TRACK 35 AUDIO
    INDEX 00 52:31:26
    INDEX 01 52:33:25
  TRACK 36 AUDIO
    INDEX 00 52:57:54
    INDEX 01 52:59:53
  TRACK 37 AUDIO
    INDEX 00 53:20:33
    INDEX 01 53:22:32
  TRACK 38 AUDIO
    INDEX 00 53:45:42
    INDEX 01 53:47:41
  TRACK 39 AUDIO
    INDEX 00 54:07:15
    INDEX 01 54:09:14
  TRACK 40 AUDIO
    INDEX 00 54:28:55
    INDEX 01 54:30:54
  TRACK 41 AUDIO
    INDEX 00 54:50:10
    INDEX 01 54:52:09
  TRACK 42 AUDIO
    INDEX 00 55:14:22
    INDEX 01 55:16:21
  TRACK 43 AUDIO
    INDEX 00 55:35:52
    INDEX 01 55:37:51
  TRACK 44 AUDIO
    INDEX 00 55:55:18
    INDEX 01 55:57:17
  TRACK 45 AUDIO
    INDEX 00 56:14:10
    INDEX 01 56:16:09
  TRACK 46 AUDIO
    INDEX 00 56:29:41
    INDEX 01 56:31:40
  TRACK 47 AUDIO
    INDEX 00 56:52:03
    INDEX 01 56:54:02
  TRACK 48 AUDIO
    INDEX 00 57:11:09
    INDEX 01 57:13:08
  TRACK 49 AUDIO
    INDEX 00 57:24:63
    INDEX 01 57:26:62
  TRACK 50 AUDIO
    INDEX 00 57:37:53
    INDEX 01 57:39:52
